<svg width="12" height="17" viewBox="0 0 12 17" fill="none" xmlns="http://www.w3.org/2000/svg">
<path d="M5.83333 16.6667C5.63889 16.6667 5.47222 16.6111 5.33333 16.5C5.19445 16.3889 5.09028 16.2431 5.02083 16.0625C4.75694 15.2847 4.42361 14.5556 4.02083 13.875C3.63194 13.1944 3.08333 12.3958 2.375 11.4792C1.66667 10.5625 1.09028 9.6875 0.645833 8.85417C0.215278 8.02083 0 7.01389 0 5.83333C0 4.20833 0.5625 2.83333 1.6875 1.70833C2.82639 0.569444 4.20833 0 5.83333 0C7.45833 0 8.83333 0.569444 9.95833 1.70833C11.0972 2.83333 11.6667 4.20833 11.6667 5.83333C11.6667 7.09722 11.4236 8.15278 10.9375 9C10.4653 9.83333 9.91667 10.6597 9.29167 11.4792C8.54167 12.4792 7.97222 13.3125 7.58333 13.9792C7.20833 14.6319 6.89583 15.3264 6.64583 16.0625C6.57639 16.2569 6.46528 16.4097 6.3125 16.5208C6.17361 16.6181 6.01389 16.6667 5.83333 16.6667ZM5.83333 7.91667C6.41667 7.91667 6.90972 7.71528 7.3125 7.3125C7.71528 6.90972 7.91667 6.41667 7.91667 5.83333C7.91667 5.25 7.71528 4.75694 7.3125 4.35417C6.90972 3.95139 6.41667 3.75 5.83333 3.75C5.25 3.75 4.75694 3.95139 4.35417 4.35417C3.95139 4.75694 3.75 5.25 3.75 5.83333C3.75 6.41667 3.95139 6.90972 4.35417 7.3125C4.75694 7.71528 5.25 7.91667 5.83333 7.91667Z" fill="#4C4C4C"/>
</svg>
