<svg width="16" height="16" viewBox="0 0 16 16" fill="none" xmlns="http://www.w3.org/2000/svg">
<path d="M6.00049 3.27307C6.0114 3.7608 5.88743 4.24146 5.64209 4.65979L5.63721 4.66956C5.5037 4.90876 5.3211 5.13317 5.1333 5.28967L5.12061 5.29944L5.10889 5.31116C4.66923 5.72868 4.05569 5.98266 3.39404 5.99963L3.38916 6.00061C2.93044 6.01719 2.4714 5.90036 2.07861 5.68713L1.34033 5.28674V8.83362H1.8335V9.33362H1.3335V5.07776C1.83044 5.66466 2.55024 5.99373 3.32666 5.99377H3.38037L3.39307 5.9928C4.03549 5.97664 4.63825 5.73668 5.10205 5.30725L5.10303 5.30823C5.32399 5.12126 5.50185 4.89926 5.63721 4.65393C5.88505 4.22567 6.00835 3.75406 6.00049 3.27307ZM9.18506 9.22913L9.18604 9.22815L9.18506 9.22913ZM9.4126 9.1051C9.41163 9.10576 9.41064 9.1064 9.40967 9.10706C9.41064 9.1064 9.41163 9.10576 9.4126 9.1051ZM5.99951 3.26428C5.99958 3.26657 6.00043 3.26883 6.00049 3.27112V3.26917L5.99951 3.26428ZM5.93408 2.74084C5.95118 2.8176 5.96557 2.89534 5.97607 2.97424C5.96563 2.89536 5.95134 2.81765 5.93408 2.74084ZM5.85596 2.46155C5.88209 2.53823 5.9042 2.61645 5.92334 2.69592C5.90405 2.61657 5.88231 2.53825 5.85596 2.46155ZM10.0005 1.31995V1.33362H5.28955L5.68701 2.06995C5.7507 2.18822 5.80341 2.31245 5.84814 2.44006C5.72841 2.10113 5.54203 1.78969 5.29736 1.52209L5.10107 1.32776L5.09619 1.32385L5.09521 1.32288C5.09581 1.32197 5.09675 1.32094 5.09814 1.31995H10.0005Z" fill="#000087" stroke="#000087"/>
<path d="M5.3335 12.0004C5.37499 12.0004 5.416 12.0025 5.45654 12.0062C5.41601 12.0025 5.375 12.0004 5.3335 12.0004ZM5.3335 12.0004C5.29166 12.0004 5.25032 12.0025 5.20947 12.0062C5.25033 12.0024 5.29167 12.0004 5.3335 12.0004ZM4.30322 12.4877C4.11403 12.7179 4.00049 13.0123 4.00049 13.3334H3.94385L4.04736 12.9711C4.09886 12.7917 4.18735 12.6279 4.30322 12.4877ZM4.30322 12.4877C4.31231 12.4766 4.32211 12.4662 4.33154 12.4554M4.30322 12.4877C4.31234 12.4766 4.32209 12.4662 4.33154 12.4554M4.33154 12.4554C4.34664 12.4383 4.36151 12.421 4.37744 12.4047C4.36153 12.421 4.3466 12.4383 4.33154 12.4554ZM6.36279 12.4877C6.47886 12.628 6.56807 12.7915 6.61963 12.9711L6.72314 13.3334H6.6665C6.6665 13.0121 6.55223 12.7179 6.36279 12.4877ZM10.9419 12.0277C11.4272 12.1279 11.8157 12.4944 11.9526 12.9711L12.0571 13.3334H12.0005C12.0005 12.6915 11.5462 12.1545 10.9419 12.0277ZM2.38135 13.0912C2.04099 12.9063 1.76057 12.6259 1.57568 12.2855C1.76066 12.6256 2.04122 12.9062 2.38135 13.0912ZM14.5093 12.1107C14.3321 12.5298 14.0167 12.8764 13.6196 13.0922L13.4448 13.1761C13.9232 12.9734 14.3066 12.5892 14.5093 12.1107ZM4.41553 12.3685C4.43243 12.3525 4.44957 12.3368 4.46729 12.3217C4.44959 12.3368 4.4324 12.3525 4.41553 12.3685ZM6.19873 12.3217C6.21646 12.3368 6.23357 12.3525 6.25049 12.3685C6.23359 12.3525 6.21645 12.3368 6.19873 12.3217ZM4.49854 12.2953C4.52151 12.2768 4.54467 12.2585 4.56885 12.2416C4.54467 12.2585 4.5215 12.2768 4.49854 12.2953ZM6.09717 12.2416C6.12137 12.2585 6.14448 12.2768 6.16748 12.2953C6.14449 12.2768 6.12137 12.2585 6.09717 12.2416ZM4.59619 12.222C4.62387 12.2037 4.65307 12.1876 4.68213 12.1713C4.65305 12.1876 4.62387 12.2036 4.59619 12.222ZM5.98486 12.1713C6.01368 12.1875 6.04236 12.2038 6.06982 12.222C6.04236 12.2038 6.0137 12.1875 5.98486 12.1713ZM4.70166 12.1595C4.7354 12.1413 4.7698 12.1241 4.80518 12.1088C4.76977 12.1241 4.7354 12.1413 4.70166 12.1595ZM4.84131 12.0941C4.86764 12.0836 4.89428 12.0736 4.92139 12.0648C4.89426 12.0736 4.86764 12.0836 4.84131 12.0941ZM5.74463 12.0648C5.77175 12.0736 5.79837 12.0836 5.82471 12.0941C5.79836 12.0837 5.77177 12.0736 5.74463 12.0648ZM4.9624 12.0531C4.98561 12.0464 5.00901 12.04 5.03271 12.0345C5.009 12.04 4.98562 12.0464 4.9624 12.0531ZM5.6333 12.0345C5.65701 12.04 5.68039 12.0464 5.70361 12.0531C5.68039 12.0464 5.65703 12.04 5.6333 12.0345ZM10.8081 12.0072C10.8491 12.0114 10.8894 12.0179 10.9292 12.0258C10.8894 12.0178 10.8491 12.0115 10.8081 12.0072ZM5.09033 12.0228C5.1123 12.0188 5.13441 12.0151 5.15674 12.0121C5.1344 12.015 5.1123 12.0188 5.09033 12.0228ZM5.50928 12.0121C5.53161 12.015 5.55371 12.0188 5.57568 12.0228C5.55371 12.0188 5.53162 12.015 5.50928 12.0121ZM10.4458 12.0189C10.4497 12.0182 10.4536 12.0176 10.4575 12.017C10.4536 12.0176 10.4497 12.0183 10.4458 12.0189ZM10.6733 12.0004C10.7164 12.0004 10.7592 12.0022 10.8013 12.0062C10.7579 12.0019 10.7139 12.0005 10.6694 12.0004C10.6707 12.0004 10.672 12.0004 10.6733 12.0004ZM10.5532 12.0052C10.5771 12.0031 10.6013 12.0032 10.6255 12.0023C10.6012 12.0031 10.5771 12.0032 10.5532 12.0052ZM9.06299 9.2738H9.06396H9.06299ZM9.83936 8.63611C9.81895 8.6737 9.79676 8.71019 9.77295 8.74548L9.6958 8.84802C9.7502 8.7821 9.79828 8.71078 9.83936 8.63513V8.63611ZM11.2271 3.33337C11.2988 3.33338 11.3695 3.34076 11.439 3.35193C11.3693 3.34076 11.2986 3.33338 11.2271 3.33337ZM9.28369 13.3334L9.36377 13.0521C9.34427 13.1428 9.3335 13.2369 9.3335 13.3334H9.28369ZM6.28857 12.4047C6.30887 12.4255 6.32824 12.447 6.34717 12.4691C6.32829 12.447 6.30883 12.4255 6.28857 12.4047Z" fill="#000087" stroke="#000087"/>
<path d="M5.33333 15.1667C4.32 15.1667 3.5 14.3467 3.5 13.3333C3.5 12.32 4.32 11.5 5.33333 11.5C6.34667 11.5 7.16667 12.32 7.16667 13.3333C7.16667 14.3467 6.34667 15.1667 5.33333 15.1667ZM5.33333 12.5C4.87333 12.5 4.5 12.8733 4.5 13.3333C4.5 13.7933 4.87333 14.1667 5.33333 14.1667C5.79333 14.1667 6.16667 13.7933 6.16667 13.3333C6.16667 12.8733 5.79333 12.5 5.33333 12.5Z" fill="#000087"/>
<path d="M10.6668 15.1667C9.6535 15.1667 8.8335 14.3467 8.8335 13.3333C8.8335 12.32 9.6535 11.5 10.6668 11.5C11.6802 11.5 12.5002 12.32 12.5002 13.3333C12.5002 14.3467 11.6802 15.1667 10.6668 15.1667ZM10.6668 12.5C10.2068 12.5 9.8335 12.8733 9.8335 13.3333C9.8335 13.7933 10.2068 14.1667 10.6668 14.1667C11.1268 14.1667 11.5002 13.7933 11.5002 13.3333C11.5002 12.8733 11.1268 12.5 10.6668 12.5Z" fill="#000087"/>
<path d="M14.6667 9.83333H12.6667C12.0267 9.83333 11.5 9.30667 11.5 8.66667V6.66667C11.5 6.02667 12.0267 5.5 12.6667 5.5H13.5267C13.7067 5.5 13.8733 5.59334 13.96 5.75334L15.1 7.75334C15.14 7.82667 15.1667 7.91333 15.1667 8V9.33333C15.1667 9.60667 14.94 9.83333 14.6667 9.83333ZM12.6667 6.5C12.5733 6.5 12.5 6.57333 12.5 6.66667V8.66667C12.5 8.76 12.5733 8.83333 12.6667 8.83333H14.1667V8.13334L13.2333 6.5H12.6667Z" fill="#000087"/>
<path d="M3.33317 6.49996C2.2265 6.49996 1.18651 5.91329 0.626506 4.95996C0.326506 4.47996 0.166504 3.91329 0.166504 3.33329C0.166504 2.35996 0.599857 1.45994 1.35319 0.859945C1.91319 0.413278 2.61984 0.166626 3.33317 0.166626C5.07984 0.166626 6.49984 1.58663 6.49984 3.33329C6.49984 3.91329 6.33984 4.47997 6.03984 4.96663C5.87317 5.24663 5.65983 5.49996 5.40649 5.7133C4.85316 6.21996 4.11317 6.49996 3.33317 6.49996ZM3.33317 1.16663C2.83984 1.16663 2.37315 1.33327 1.97982 1.64661C1.46648 2.05327 1.1665 2.67329 1.1665 3.33329C1.1665 3.72663 1.27315 4.11328 1.47982 4.44661C1.86648 5.09995 2.57984 5.49996 3.33317 5.49996C3.85984 5.49996 4.36651 5.30663 4.75317 4.95996C4.92651 4.81329 5.07318 4.63995 5.17985 4.45329C5.39318 4.11329 5.49984 3.72663 5.49984 3.33329C5.49984 2.13996 4.5265 1.16663 3.33317 1.16663Z" fill="#000087"/>
<path d="M4.04661 4.52667C3.91994 4.52667 3.79326 4.48003 3.69326 4.38003L2.2866 2.97337C2.09327 2.78004 2.09327 2.46004 2.2866 2.2667C2.47993 2.07337 2.79993 2.07337 2.99327 2.2667L4.39992 3.67336C4.59326 3.86669 4.59326 4.18669 4.39992 4.38003C4.29992 4.48003 4.17328 4.52667 4.04661 4.52667Z" fill="#000087"/>
<path d="M2.61989 4.54661C2.49323 4.54661 2.36658 4.49992 2.26658 4.39992C2.07325 4.20659 2.07325 3.88659 2.26658 3.69326L3.67324 2.2866C3.86657 2.09327 4.18657 2.09327 4.3799 2.2866C4.57324 2.47993 4.57324 2.79993 4.3799 2.99327L2.97325 4.39992C2.87325 4.49992 2.74656 4.54661 2.61989 4.54661Z" fill="#000087"/>
</svg>
