<svg width="21" height="22" viewBox="0 0 21 22" fill="none" xmlns="http://www.w3.org/2000/svg">
<path d="M8.62358 1.98904C9.16768 1.31137 9.43973 0.972542 9.76428 0.843269C10.0765 0.71891 10.4235 0.71891 10.7357 0.843269C11.0603 0.972542 11.3323 1.31137 11.8764 1.98904C12.1794 2.36642 12.3309 2.55511 12.5201 2.67419C12.7032 2.78945 12.9113 2.85781 13.1262 2.87336C13.3483 2.88943 13.5831 2.82588 14.0526 2.69879C14.8785 2.4752 15.2915 2.36341 15.6221 2.44574C15.9605 2.53003 16.2528 2.74579 16.436 3.04657C16.6149 3.34038 16.6367 3.76752 16.6805 4.6218C16.7049 5.09921 16.7171 5.33791 16.7976 5.54383C16.8804 5.7557 17.0149 5.94281 17.1883 6.08768C17.3569 6.22848 17.579 6.3141 18.0232 6.48534C18.8131 6.78982 19.208 6.94206 19.428 7.2011C19.6608 7.47534 19.7752 7.83303 19.7453 8.1937C19.7172 8.53439 19.4876 8.8896 19.0285 9.60004C18.7726 9.99607 18.6446 10.1941 18.5895 10.4061C18.5309 10.6315 18.5309 10.8685 18.5895 11.0939C18.6446 11.3059 18.7726 11.5039 19.0285 11.9C19.4876 12.6104 19.7172 12.9656 19.7453 13.3063C19.7752 13.667 19.6608 14.0247 19.428 14.2989C19.208 14.5579 18.8131 14.7102 18.0232 15.0147C17.579 15.1859 17.3569 15.2715 17.1883 15.4123C17.0149 15.5572 16.8804 15.7443 16.7976 15.9562C16.7171 16.1621 16.7049 16.4008 16.6805 16.8782C16.6367 17.7325 16.6149 18.1596 16.436 18.4534C16.2528 18.7542 15.9605 18.97 15.6221 19.0543C15.2915 19.1366 14.8785 19.0248 14.0526 18.8012C13.5831 18.6741 13.3483 18.6106 13.1262 18.6266C12.9113 18.6422 12.7032 18.7105 12.5201 18.8258C12.3309 18.9449 12.1794 19.1336 11.8764 19.511C11.3323 20.1886 11.0603 20.5275 10.7357 20.6567C10.4235 20.7811 10.0765 20.7811 9.76428 20.6567C9.43973 20.5275 9.16768 20.1886 8.62358 19.511C8.32058 19.1336 8.16908 18.9449 7.97989 18.8258C7.79676 18.7105 7.58874 18.6422 7.37378 18.6266C7.1517 18.6106 6.91694 18.6741 6.44743 18.8012C5.62148 19.0248 5.20851 19.1366 4.87791 19.0543C4.53947 18.97 4.2472 18.7542 4.06405 18.4534C3.88515 18.1596 3.86328 17.7325 3.81954 16.8782C3.7951 16.4008 3.78288 16.1621 3.70238 15.9562C3.61956 15.7443 3.48514 15.5572 3.3117 15.4123C3.14313 15.2715 2.92101 15.1859 2.47677 15.0147C1.6869 14.7102 1.29197 14.5579 1.07204 14.2989C0.839214 14.0247 0.724841 13.667 0.754651 13.3063C0.78281 12.9656 1.01237 12.6104 1.47148 11.9C1.72741 11.5039 1.85538 11.3059 1.9105 11.0939C1.96912 10.8685 1.96912 10.6315 1.9105 10.4061C1.85538 10.1941 1.72741 9.99607 1.47148 9.60004C1.01237 8.8896 0.78281 8.53439 0.754651 8.1937C0.724841 7.83303 0.839214 7.47534 1.07204 7.2011C1.29197 6.94206 1.6869 6.78982 2.47677 6.48534C2.92101 6.3141 3.14313 6.22848 3.3117 6.08768C3.48514 5.94281 3.61956 5.7557 3.70238 5.54383C3.78288 5.33791 3.7951 5.09921 3.81954 4.6218C3.86328 3.76752 3.88515 3.34038 4.06405 3.04657C4.2472 2.74579 4.53947 2.53003 4.87791 2.44574C5.20851 2.36341 5.62148 2.4752 6.44743 2.69879C6.91694 2.82588 7.1517 2.88943 7.37378 2.87336C7.58874 2.85781 7.79676 2.78945 7.97989 2.67419C8.16908 2.55511 8.32058 2.36642 8.62358 1.98904Z" fill="url(#paint0_linear_6256_27793)" stroke="#000087" stroke-width="1.5" stroke-linejoin="round"/>
<path d="M7.25 12.0833C7.25 12.0833 8.125 12.0833 9 13.75C9 13.75 11.7794 9.58333 14.25 8.75" stroke="white" stroke-width="1.5" stroke-linecap="round" stroke-linejoin="round"/>
<defs>
<linearGradient id="paint0_linear_6256_27793" x1="0.471009" y1="14.8454" x2="19.9561" y2="14.8011" gradientUnits="userSpaceOnUse">
<stop stop-color="#00A8DF"/>
<stop offset="0.74" stop-color="#1031AA"/>
</linearGradient>
</defs>
</svg>
